<svg width="55" height="71" viewBox="0 0 55 71" fill="none" xmlns="http://www.w3.org/2000/svg"><path d="M31.766 51.703h.5v-3.531h-18.75v-6.5h18.629c7.013-.063 12.49-1.802 16.36-5.284 3.91-3.49 5.839-8.42 5.839-14.716 0-6.36-1.977-11.382-5.976-14.995-3.963-3.64-9.505-5.427-16.556-5.427H9.985v36.89H.61v3.532h9.375v6.5H.61v3.531h9.375V70.5h3.532V51.703h18.25zM45.829 33.81l-.001.002c-3.287 2.864-7.936 4.33-14.016 4.33H13.517V4.78h18.297c6.074 0 10.72 1.526 14.007 4.511l.004.003c3.31 2.95 4.989 7.083 4.989 12.47 0 5.195-1.675 9.187-4.984 12.044z" fill="#BDBDBD" stroke="#000"/></svg>