<svg width="55" height="71" viewBox="0 0 55 71" fill="none" xmlns="http://www.w3.org/2000/svg">
<path d="M31.7656 51.7031H32.2656V51.2031V48.6719V48.1719H31.7656H13.5156V41.6719L32.1406 41.6719L32.1451 41.6719C39.1583 41.6087 44.6359 39.8703 48.5057 36.3879C52.4157 32.8975 54.3438 27.9673 54.3438 21.6719C54.3438 15.3116 52.3674 10.2905 48.3679 6.67717C44.4047 3.03708 38.8628 1.25 31.8125 1.25H10.4844H9.98438V1.75V38.1406H1.10938H0.609375V38.6406V41.1719V41.6719H1.10938H9.98438V48.1719H1.10938H0.609375V48.6719V51.2031V51.7031H1.10938H9.98438V70V70.5H10.4844H13.0156H13.5156V70V51.7031H31.7656ZM45.8294 33.8091L45.8277 33.8106C42.541 36.6752 37.892 38.1406 31.8125 38.1406H13.5156V4.78125H31.8125C37.8872 4.78125 42.5332 6.30668 45.8201 9.29202L45.8236 9.29521C49.1339 12.2444 50.8125 16.3779 50.8125 21.7656C50.8125 26.9601 49.1379 30.9518 45.8294 33.8091Z" fill="#BDBDBD" stroke="black"/>
</svg>
