<svg width="100" height="101" viewBox="0 0 100 101" fill="none" xmlns="http://www.w3.org/2000/svg">
<circle cx="50" cy="50.5" r="50" fill="#F2F2F2" fill-opacity="0.05"/>
<path fill-rule="evenodd" clip-rule="evenodd" d="M6.78435 55.2687C6.75454 54.625 6.73948 53.9774 6.73948 53.3263C6.73948 33.9604 20.0672 17.7073 38.0508 13.239C42.9586 11.6651 48.1711 11.0625 53.3939 11.5172C63.1437 12.3659 72.2216 16.8373 78.837 24.0495C84.9613 30.7262 88.5636 39.3031 89.0692 48.3046C89.1365 49.5033 90.1041 50.477 91.3047 50.4764C92.5053 50.4757 93.4837 49.501 93.4231 48.302C92.9126 38.2123 88.9005 28.5887 82.0411 21.1105C74.6906 13.097 64.6041 8.1288 53.771 7.18575C42.9379 6.2427 32.1446 9.39329 23.52 16.0161C14.8954 22.639 9.06563 32.2532 7.18046 42.9626C6.45942 47.0588 6.33546 51.2014 6.78435 55.2687ZM55.4351 88.5436C55.4351 91.5452 53.0019 93.9784 50.0004 93.9784C46.9988 93.9784 44.5656 91.5452 44.5656 88.5436C44.5656 85.5421 46.9988 83.1088 50.0004 83.1088C50.6226 83.1088 51.2204 83.2134 51.7771 83.4059L78.742 25.9464L53.5005 84.3859C54.6836 85.3828 55.4351 86.8755 55.4351 88.5436Z" fill="#F2F2F2"/>
</svg>
